<mxfile host="app.diagrams.net" modified="2024-06-11T13:18:57.598Z" agent="Mozilla/5.0 (Windows NT 10.0; Win64; x64; rv:126.0) Gecko/20100101 Firefox/126.0" version="24.5.2" etag="sOhXjg7YPv8daqG-uerv" type="github">
  <diagram name="Page-1" id="JKHdVAjpz48pDpbioTX_">
    <mxGraphModel>
      <root>
        <mxCell id="0" />
        <mxCell id="1" parent="0" />
      </root>
    </mxGraphModel>
  </diagram>
</mxfile>
